<svg width="16" height="14" viewBox="0 0 16 14" fill="none" xmlns="http://www.w3.org/2000/svg">
<path fill-rule="evenodd" clip-rule="evenodd" d="M11 4.5C11.8284 4.5 12.5 3.82843 12.5 3C12.5 2.17157 11.8284 1.5 11 1.5C10.1716 1.5 9.5 2.17157 9.5 3C9.5 3.82843 10.1716 4.5 11 4.5ZM13.9055 3.75C13.5725 5.04392 12.3979 6 11 6C9.60212 6 8.42754 5.04392 8.09451 3.75H1C0.585786 3.75 0.25 3.41421 0.25 3C0.25 2.58579 0.585786 2.25 1 2.25H8.09451C8.42754 0.95608 9.60212 0 11 0C12.3979 0 13.5725 0.95608 13.9055 2.25H15C15.4142 2.25 15.75 2.58579 15.75 3C15.75 3.41421 15.4142 3.75 15 3.75H13.9055ZM5 12.5C5.82843 12.5 6.5 11.8284 6.5 11C6.5 10.1716 5.82843 9.5 5 9.5C4.17157 9.5 3.5 10.1716 3.5 11C3.5 11.8284 4.17157 12.5 5 12.5ZM7.90549 11.75C7.57245 13.0439 6.39788 14 5 14C3.60212 14 2.42755 13.0439 2.09451 11.75H1C0.585786 11.75 0.25 11.4142 0.25 11C0.25 10.5858 0.585786 10.25 1 10.25H2.09451C2.42755 8.95608 3.60212 8 5 8C6.39788 8 7.57245 8.95608 7.90549 10.25H15C15.4142 10.25 15.75 10.5858 15.75 11C15.75 11.4142 15.4142 11.75 15 11.75H7.90549Z" fill="black"/>
</svg>
