<svg width="18" height="18" viewBox="0 0 18 18" fill="none" xmlns="http://www.w3.org/2000/svg">
<path fill-rule="evenodd" clip-rule="evenodd" d="M9 0.75C6.81196 0.75 4.71354 1.61919 3.16637 3.16637C1.61919 4.71354 0.75 6.81196 0.75 9C0.75 11.188 1.61919 13.2865 3.16637 14.8336C4.71354 16.3808 6.81196 17.25 9 17.25C11.188 17.25 13.2865 16.3808 14.8336 14.8336C16.3808 13.2865 17.25 11.188 17.25 9C17.25 6.81196 16.3808 4.71354 14.8336 3.16637C13.2865 1.61919 11.188 0.75 9 0.75ZM7.20568 4.01343C7.80879 2.71669 8.49603 2.25 9 2.25C9.50297 2.25 10.1902 2.71663 10.7954 4.01354C10.9665 4.38102 11.1206 4.79588 11.253 5.25H6.74704C6.87938 4.79592 7.03386 4.38071 7.20568 4.01343ZM14.6139 5.25C13.9391 4.24168 13.0067 3.43471 11.9164 2.91146C12.0016 3.06467 12.0811 3.22174 12.1544 3.38118C12.4291 3.98285 12.6476 4.60845 12.8073 5.25H14.6139ZM5.19172 5.25H3.38614C4.06075 4.242 4.99283 3.43521 6.08268 2.91192C5.99897 3.0635 5.91984 3.21972 5.84541 3.37937L5.84458 3.38118C5.5699 3.98284 5.35138 4.60845 5.19172 5.25ZM2.63435 6.75H4.90249C4.79953 7.49552 4.74856 8.24741 4.75 9.00024C4.75001 9.77739 4.80271 10.5333 4.9028 11.25H2.63444C2.37936 10.5278 2.2492 9.76674 2.25 9C2.25 8.21143 2.38565 7.45326 2.63435 6.75ZM6.25 9C6.25 8.20913 6.30949 7.45266 6.41848 6.75H11.5815C11.6905 7.45266 11.75 8.20913 11.75 9C11.75 9.79086 11.6905 10.5473 11.5815 11.25H6.419C6.30484 10.5058 6.24832 9.75315 6.25 9ZM13.0972 11.25H15.3657C15.6144 10.5467 15.75 9.78857 15.75 9C15.75 8.21143 15.6144 7.45326 15.3657 6.75H13.0972C13.1973 7.4668 13.25 8.22276 13.25 9C13.25 9.77724 13.1973 10.5332 13.0972 11.25ZM3.38614 12.75H5.19286C5.36571 13.4327 5.58554 14.0623 5.84541 14.6206C5.91984 14.7803 5.99897 14.9365 6.08268 15.0881C4.99283 14.5648 4.06075 13.758 3.38614 12.75ZM11.2542 12.75H6.74642C6.86877 13.1729 7.02202 13.5865 7.20499 13.9872C7.8101 15.2836 8.49713 15.75 9 15.75C9.5039 15.75 10.191 15.2835 10.7941 13.9871C10.9776 13.5864 11.1314 13.1729 11.2542 12.75ZM12.1547 14.6205C12.4145 14.0621 12.6343 13.4327 12.8071 12.75H14.6139C13.9393 13.758 13.0072 14.5648 11.9173 15.0881C12.001 14.9365 12.0802 14.7801 12.1547 14.6205Z" fill="black"/>
</svg>
