<svg width="18" height="18" viewBox="0 0 18 18" fill="none" xmlns="http://www.w3.org/2000/svg">
<path d="M1.093 1.90695L1.09299 1.90693C1.03954 1.85348 0.997135 1.79002 0.968207 1.72018C0.939279 1.65035 0.92439 1.57549 0.92439 1.4999C0.92439 1.42431 0.939279 1.34945 0.968207 1.27961C0.997135 1.20978 1.03954 1.14632 1.09299 1.09287C1.14644 1.03941 1.2099 0.997013 1.27974 0.968085C1.34958 0.939157 1.42443 0.924268 1.50002 0.924268C1.57561 0.924268 1.65047 0.939157 1.72031 0.968085C1.79014 0.997013 1.8536 1.03941 1.90705 1.09287L16.9071 16.0929C17.015 16.2008 17.0757 16.3472 17.0757 16.4999C17.0757 16.6526 17.015 16.799 16.9071 16.9069C16.7991 17.0149 16.6527 17.0755 16.5 17.0755C16.3474 17.0755 16.2009 17.0149 16.093 16.9069L16.093 16.9069L11.8475 12.6605C11.5525 13.0491 11.1809 13.3734 10.7553 13.6133C10.3042 13.8675 9.80317 14.0207 9.28698 14.0623C8.7708 14.1038 8.25175 14.0328 7.76574 13.854C7.27973 13.6752 6.83837 13.3929 6.4722 13.0267C6.10602 12.6605 5.82376 12.2192 5.64496 11.7332C5.46616 11.2472 5.39508 10.7281 5.43663 10.2119C5.47819 9.69575 5.63139 9.19476 5.88564 8.74361C6.12548 8.31803 6.44984 7.9464 6.83844 7.65139L5.35694 6.16988C4.59391 6.67018 3.93563 7.31465 3.41918 8.06731C2.89132 8.83658 2.52222 9.70341 2.33347 10.6171L2.33345 10.6172C2.31805 10.6912 2.28822 10.7614 2.24568 10.8239C2.20313 10.8863 2.1487 10.9398 2.08549 10.9812C2.02228 11.0227 1.95153 11.0512 1.87728 11.0653C1.80303 11.0794 1.72673 11.0787 1.65274 11.0633C1.57875 11.0479 1.50851 11.0181 1.44605 10.9756C1.38359 10.933 1.33011 10.8786 1.28869 10.8154C1.24726 10.7522 1.21869 10.6814 1.2046 10.6072C1.19052 10.5329 1.19119 10.4566 1.2066 10.3826M1.093 1.90695L1.28002 10.3979M1.093 1.90695L4.52933 5.34131M1.093 1.90695L4.59204 5.29795M1.2066 10.3826L1.28002 10.3979M1.2066 10.3826C1.20659 10.3826 1.20659 10.3827 1.20658 10.3827L1.28002 10.3979M1.2066 10.3826C1.63024 8.33855 2.81976 6.53527 4.52933 5.34131M1.28002 10.3979C1.70067 8.36821 2.88345 6.57812 4.58322 5.39517L4.52933 5.34131M4.52933 5.34131C4.55016 5.32677 4.57106 5.31231 4.59204 5.29795M4.59204 5.29795L4.64602 5.3519L4.59204 5.29795ZM6.89931 7.60619L6.95302 7.6599C6.9325 7.6747 6.91215 7.6897 6.89198 7.70493L6.89931 7.60619ZM7.66276 8.47571L11.0228 11.8368C10.833 12.1236 10.5841 12.3669 10.2926 12.5504C9.98413 12.7446 9.63581 12.8668 9.27358 12.9078C8.91136 12.9488 8.54455 12.9077 8.20043 12.7874C7.85631 12.6671 7.54374 12.4707 7.28598 12.2129C7.02821 11.9552 6.83187 11.6426 6.71157 11.2985C6.59126 10.9544 6.55009 10.5876 6.59111 10.2253C6.63213 9.86311 6.75429 9.51479 6.9485 9.20629C7.13212 8.91461 7.37568 8.66562 7.66276 8.47571ZM9.12667 6.92695L8.93626 6.92021L9.07099 7.05493L12.445 10.4289L12.5797 10.5637L12.573 10.3732C12.541 9.46942 12.1676 8.6113 11.5281 7.9718C10.8886 7.3323 10.0305 6.95894 9.12667 6.92695ZM7.28099 5.26593L7.31131 5.29625L7.35281 5.28551C7.88384 5.14805 8.43653 5.0749 9.00002 5.0749C12.1705 5.0749 14.9916 7.37595 15.6666 10.6172C15.6977 10.7666 15.7869 10.8976 15.9146 10.9812C16.0422 11.0649 16.1979 11.0944 16.3473 11.0633C16.4967 11.0322 16.6277 10.943 16.7114 10.8154C16.795 10.6877 16.8246 10.532 16.7934 10.3826L16.7934 10.3826C16.0084 6.62388 12.7296 3.9249 9.00002 3.9249C8.15184 3.92506 7.30949 4.06494 6.50679 4.33892L6.39286 4.37781L6.47799 4.46293L7.28099 5.26593Z" fill="#6A6A6A" stroke="#6A6A6A" stroke-width="0.15" stroke-miterlimit="16"/>
</svg>
