<svg width="16" height="12" viewBox="0 0 16 12" fill="none" xmlns="http://www.w3.org/2000/svg">
<path d="M15.7934 7.38269L15.7934 7.38272C15.8245 7.53214 15.795 7.68781 15.7113 7.81547C15.6276 7.94313 15.4967 8.03232 15.3473 8.06343C15.1978 8.09453 15.0422 8.065 14.9145 7.98133C14.7868 7.89767 14.6977 7.76672 14.6665 7.61728M15.7934 7.38269L1.3334 7.61728C2.00837 4.37605 4.82954 2.075 7.99998 2.075C11.1694 2.075 13.9906 4.37603 14.6665 7.61728M15.7934 7.38269C15.0094 3.62397 11.7296 0.925 7.99998 0.925C4.27039 0.925 0.990588 3.62397 0.206556 7.38269L0.20655 7.38272C0.175444 7.53215 0.204973 7.68781 0.288641 7.81547C0.372309 7.94313 0.503262 8.03232 0.652691 8.06343C0.802121 8.09453 0.957788 8.065 1.08545 7.98133C1.2131 7.89767 1.30229 7.76672 1.3334 7.61729L15.7934 7.38269ZM14.6665 7.61728L14.74 7.602L14.6666 7.61731C14.6666 7.6173 14.6666 7.61729 14.6665 7.61728ZM7.99998 3.925C7.05183 3.925 6.14251 4.30165 5.47207 4.97209C4.80163 5.64254 4.42498 6.55185 4.42498 7.5C4.42498 8.44815 4.80163 9.35746 5.47207 10.0279C6.14251 10.6983 7.05183 11.075 7.99998 11.075C8.94813 11.075 9.85744 10.6983 10.5279 10.0279C11.1983 9.35746 11.575 8.44815 11.575 7.5C11.575 6.55185 11.1983 5.64254 10.5279 4.97209C9.85744 4.30165 8.94813 3.925 7.99998 3.925ZM5.57498 7.5C5.57498 6.85685 5.83047 6.24004 6.28524 5.78527C6.74002 5.33049 7.35683 5.075 7.99998 5.075C8.64313 5.075 9.25993 5.33049 9.71471 5.78527C10.1695 6.24004 10.425 6.85685 10.425 7.5C10.425 8.14315 10.1695 8.75996 9.71471 9.21473C9.25993 9.66951 8.64313 9.925 7.99998 9.925C7.35683 9.925 6.74002 9.66951 6.28524 9.21473C5.83047 8.75996 5.57498 8.14315 5.57498 7.5Z" fill="#6A6A6A" stroke="#6A6A6A" stroke-width="0.15" stroke-miterlimit="16"/>
</svg>
