<svg width="18" height="16" viewBox="0 0 18 16" fill="none" xmlns="http://www.w3.org/2000/svg">
<path fill-rule="evenodd" clip-rule="evenodd" d="M8.97629 1.05781C9.22056 1.32087 9.20533 1.73214 8.94227 1.97642L3.15522 7.3501H16.5C16.859 7.3501 17.15 7.64112 17.15 8.0001C17.15 8.35909 16.859 8.6501 16.5 8.6501H3.15522L8.94227 14.0238C9.20533 14.2681 9.22056 14.6793 8.97629 14.9424C8.73202 15.2055 8.32074 15.2207 8.05768 14.9764L1.05768 8.47642C0.925234 8.35343 0.849976 8.18085 0.849976 8.0001C0.849976 7.81936 0.925234 7.64677 1.05768 7.52378L8.05768 1.02378C8.32074 0.779513 8.73202 0.794745 8.97629 1.05781Z" fill="white"/>
</svg>
