<svg width="17" height="15" viewBox="0 0 17 15" fill="none" xmlns="http://www.w3.org/2000/svg">
<path fill-rule="evenodd" clip-rule="evenodd" d="M5.58579 3.58579C5.21071 3.96086 5 4.46957 5 5C5 5.53043 5.21071 6.03914 5.58579 6.41421C5.96086 6.78929 6.46957 7 7 7C7.53043 7 8.03914 6.78929 8.41421 6.41421C8.78929 6.03914 9 5.53043 9 5C9 4.46957 8.78929 3.96086 8.41421 3.58579C8.03914 3.21071 7.53043 3 7 3C6.46957 3 5.96086 3.21071 5.58579 3.58579ZM6.29289 4.29289C6.48043 4.10536 6.73478 4 7 4C7.26522 4 7.51957 4.10536 7.70711 4.29289C7.89464 4.48043 8 4.73478 8 5C8 5.26522 7.89464 5.51957 7.70711 5.70711C7.51957 5.89464 7.26522 6 7 6C6.73478 6 6.48043 5.89464 6.29289 5.70711C6.10536 5.51957 6 5.26522 6 5C6 4.73478 6.10536 4.48043 6.29289 4.29289Z" fill="#6A6A6A"/>
<path fill-rule="evenodd" clip-rule="evenodd" d="M0.43934 0.43934C0.720644 0.158035 1.10218 0 1.5 0H12.5C12.8978 0 13.2794 0.158035 13.5607 0.43934C13.842 0.720644 14 1.10218 14 1.5V5.207C13.6731 5.11458 13.3383 5.05265 13 5.022V4H12C11.4696 4 10.9609 3.78929 10.5858 3.41421C10.2107 3.03914 10 2.53043 10 2V1H4V2C4 2.53043 3.78929 3.03914 3.41421 3.41421C3.03914 3.78929 2.53043 4 2 4H1V6H2C2.53043 6 3.03914 6.21071 3.41421 6.58579C3.78929 6.96086 4 7.46957 4 8V9H7.207C7.11447 9.32688 7.05254 9.66165 7.022 10H1.5C1.10218 10 0.720644 9.84196 0.43934 9.56066C0.158035 9.27936 0 8.89782 0 8.5V1.5C0 1.10218 0.158035 0.720644 0.43934 0.43934ZM1.14645 1.14645C1.05268 1.24021 1 1.36739 1 1.5V3H2C2.26522 3 2.51957 2.89464 2.70711 2.70711C2.89464 2.51957 3 2.26522 3 2V1H1.5C1.36739 1 1.24021 1.05268 1.14645 1.14645ZM12.5 1H11V2C11 2.26522 11.1054 2.51957 11.2929 2.70711C11.4804 2.89464 11.7348 3 12 3H13V1.5C13 1.36739 12.9473 1.24021 12.8536 1.14645C12.7598 1.05268 12.6326 1 12.5 1ZM1.5 9H3V8C3 7.73478 2.89464 7.48043 2.70711 7.29289C2.51957 7.10536 2.26522 7 2 7H1V8.5C1 8.63261 1.05268 8.75979 1.14645 8.85355C1.24021 8.94732 1.36739 9 1.5 9Z" fill="#6A6A6A"/>
<path d="M7.022 11H2.085C2.18844 11.2926 2.38008 11.5459 2.63351 11.725C2.88694 11.9041 3.18967 12.0002 3.5 12H7.207C7.11458 11.6731 7.05265 11.3383 7.022 11Z" fill="#6A6A6A"/>
<path d="M16 6.257V3.5C16.0002 3.18967 15.9041 2.88694 15.725 2.63351C15.5459 2.38008 15.2926 2.18844 15 2.085V5.6C15.3562 5.78204 15.6915 6.00234 16 6.257Z" fill="#6A6A6A"/>
<path fill-rule="evenodd" clip-rule="evenodd" d="M9.31802 13.682C10.1619 14.5259 11.3065 15 12.5 15C13.6935 15 14.8381 14.5259 15.682 13.682C16.5259 12.8381 17 11.6935 17 10.5C17 9.30653 16.5259 8.16193 15.682 7.31802C14.8381 6.47411 13.6935 6 12.5 6C11.3065 6 10.1619 6.47411 9.31802 7.31802C8.47411 8.16193 8 9.30653 8 10.5C8 11.6935 8.47411 12.8381 9.31802 13.682ZM10.144 10.149C10.0524 10.2417 10.0007 10.3666 10 10.497V10.503C10.0008 10.6343 10.0533 10.76 10.146 10.853L12.146 12.853C12.2398 12.9469 12.367 12.9997 12.4996 12.9998C12.6323 12.9999 12.7596 12.9473 12.8535 12.8535C12.9474 12.7597 13.0002 12.6325 13.0003 12.4999C13.0004 12.3672 12.9478 12.2399 12.854 12.146L11.707 11H14.5C14.6326 11 14.7598 10.9473 14.8536 10.8536C14.9473 10.7598 15 10.6326 15 10.5C15 10.3674 14.9473 10.2402 14.8536 10.1464C14.7598 10.0527 14.6326 10 14.5 10H11.707L12.854 8.854C12.9479 8.76011 13.0006 8.63278 13.0006 8.5C13.0006 8.36722 12.9479 8.23989 12.854 8.146C12.7601 8.05211 12.6328 7.99937 12.5 7.99937C12.3672 7.99937 12.2399 8.05211 12.146 8.146L10.144 10.149Z" fill="#6A6A6A"/>
</svg>
