<svg width="18" height="15" viewBox="0 0 18 15" fill="none" xmlns="http://www.w3.org/2000/svg">
<path fill-rule="evenodd" clip-rule="evenodd" d="M0.93934 0.43934C1.22064 0.158035 1.60218 0 2 0H13C13.3978 0 13.7794 0.158035 14.0607 0.43934C14.342 0.720644 14.5 1.10218 14.5 1.5V5.207C13.7224 4.98647 12.9057 4.94004 12.1082 5.07101C11.3106 5.20199 10.5516 5.50714 9.8854 5.96477C9.21916 6.42239 8.66196 7.02124 8.25347 7.71869C7.84498 8.41614 7.59523 9.19505 7.522 10H2C1.60218 10 1.22064 9.84196 0.93934 9.56066C0.658035 9.27936 0.5 8.89782 0.5 8.5V1.5C0.5 1.10218 0.658035 0.720644 0.93934 0.43934ZM3.91421 3.41421C4.28929 3.03914 4.5 2.53043 4.5 2V1H3.5V2C3.5 2.26522 3.39464 2.51957 3.20711 2.70711C3.01957 2.89464 2.76522 3 2.5 3H1.5V4H2.5C3.03043 4 3.53914 3.78929 3.91421 3.41421ZM6.26256 6.23744C6.59075 6.56563 7.03587 6.75 7.5 6.75C7.96413 6.75 8.40925 6.56563 8.73744 6.23744C9.06563 5.90925 9.25 5.46413 9.25 5C9.25 4.53587 9.06563 4.09075 8.73744 3.76256C8.40925 3.43437 7.96413 3.25 7.5 3.25C7.03587 3.25 6.59075 3.43437 6.26256 3.76256C5.93437 4.09075 5.75 4.53587 5.75 5C5.75 5.46413 5.93437 5.90925 6.26256 6.23744ZM1.5 6V7H2.5C2.76522 7 3.01957 7.10536 3.20711 7.29289C3.39464 7.48043 3.5 7.73478 3.5 8V9H4.5V8C4.5 7.46957 4.28929 6.96086 3.91421 6.58579C3.53914 6.21071 3.03043 6 2.5 6H1.5ZM11.7929 2.70711C11.6054 2.51957 11.5 2.26522 11.5 2V1H10.5V2C10.5 2.53043 10.7107 3.03914 11.0858 3.41421C11.4609 3.78929 11.9696 4 12.5 4H13.5V3H12.5C12.2348 3 11.9804 2.89464 11.7929 2.70711Z" fill="black"/>
<path d="M7.522 11H2.585C2.68844 11.2926 2.88008 11.5459 3.13351 11.725C3.38694 11.9041 3.68967 12.0002 4 12H7.707C7.61458 11.6731 7.55265 11.3383 7.522 11Z" fill="black"/>
<path d="M16.5 6.257V3.5C16.5002 3.18967 16.4041 2.88694 16.225 2.63351C16.0459 2.38008 15.7926 2.18844 15.5 2.085V5.6C15.8562 5.78204 16.1915 6.00234 16.5 6.257Z" fill="black"/>
<path fill-rule="evenodd" clip-rule="evenodd" d="M9.81802 7.31802C10.6619 6.47411 11.8065 6 13 6C14.1935 6 15.3381 6.47411 16.182 7.31802C17.0259 8.16193 17.5 9.30653 17.5 10.5C17.5 11.6935 17.0259 12.8381 16.182 13.682C15.3381 14.5259 14.1935 15 13 15C11.8065 15 10.6619 14.5259 9.81802 13.682C8.97411 12.8381 8.5 11.6935 8.5 10.5C8.5 9.30653 8.97411 8.16193 9.81802 7.31802ZM10.644 10.851C10.5524 10.7583 10.5007 10.6334 10.5 10.503V10.497C10.5008 10.3657 10.5533 10.24 10.646 10.147L12.646 8.147C12.7398 8.05311 12.867 8.00032 12.9996 8.00022C13.1323 8.00013 13.2596 8.05275 13.3535 8.1465C13.4474 8.24025 13.5002 8.36747 13.5003 8.50015C13.5004 8.63283 13.4478 8.76011 13.354 8.854L12.207 10H15C15.1326 10 15.2598 10.0527 15.3536 10.1464C15.4473 10.2402 15.5 10.3674 15.5 10.5C15.5 10.6326 15.4473 10.7598 15.3536 10.8536C15.2598 10.9473 15.1326 11 15 11H12.207L13.354 12.146C13.4479 12.2399 13.5006 12.3672 13.5006 12.5C13.5006 12.6328 13.4479 12.7601 13.354 12.854C13.2601 12.9479 13.1328 13.0006 13 13.0006C12.8672 13.0006 12.7399 12.9479 12.646 12.854L10.644 10.851Z" fill="black"/>
</svg>
