<svg width="14" height="14" viewBox="0 0 14 14" fill="none" xmlns="http://www.w3.org/2000/svg">
<path d="M0.722817 0.725549C0.852813 0.595548 1.02548 0.517023 1.20889 0.504496C1.39229 0.491968 1.57403 0.546286 1.72049 0.657403L1.79867 0.725549L6.99936 5.92545L12.2015 0.72268C12.3378 0.586413 12.5208 0.506983 12.7134 0.500439C12.9061 0.493895 13.094 0.560725 13.2393 0.687426C13.3845 0.814127 13.4763 0.991252 13.496 1.18301C13.5157 1.37477 13.4619 1.56686 13.3455 1.72048L13.2773 1.79867L8.07522 7.00143L13.2766 12.2006C13.4126 12.3371 13.4918 12.5201 13.4982 12.7127C13.5045 12.9052 13.4376 13.0931 13.3108 13.2382C13.1841 13.3833 13.007 13.475 12.8154 13.4946C12.6237 13.5142 12.4318 13.4604 12.2782 13.344L12.2001 13.2759L6.99936 8.07742L1.80011 13.2773C1.66377 13.4136 1.4808 13.493 1.28817 13.4996C1.09553 13.5061 0.907597 13.4393 0.762332 13.3126C0.617068 13.1859 0.525306 13.0087 0.50559 12.817C0.485873 12.6252 0.539672 12.4331 0.656114 12.2795L0.724252 12.2013L5.92422 7.00072L0.722817 1.80154C0.58015 1.65885 0.5 1.46533 0.5 1.26354C0.5 1.06176 0.58015 0.868234 0.722817 0.725549Z" fill="black"/>
</svg>
