<svg width="16" height="16" viewBox="0 0 16 16" fill="none" xmlns="http://www.w3.org/2000/svg">
<path d="M13.6569 2.34315C15.1571 3.84344 16 5.87827 16 8C16 10.1217 15.1571 12.1566 13.6569 13.6569C12.1566 15.1571 10.1217 16 8 16C5.87827 16 3.84344 15.1571 2.34315 13.6569C0.842854 12.1566 0 10.1217 0 8C0 5.87827 0.842854 3.84344 2.34315 2.34315C3.84344 0.842855 5.87827 0 8 0C10.1217 0 12.1566 0.842855 13.6569 2.34315ZM5.17157 10.8284C5.26534 10.9222 5.39252 10.9749 5.52513 10.9749C5.65773 10.9749 5.78491 10.9222 5.87868 10.8284L8 8.70711L10.1213 10.8284C10.2151 10.9222 10.3423 10.9749 10.4749 10.9749C10.6075 10.9749 10.7347 10.9222 10.8284 10.8284C10.9222 10.7347 10.9749 10.6075 10.9749 10.4749C10.9749 10.3423 10.9222 10.2151 10.8284 10.1213L8.70711 8L10.8284 5.87868C10.9222 5.78491 10.9749 5.65773 10.9749 5.52513C10.9749 5.39252 10.9222 5.26534 10.8284 5.17157C10.7347 5.07781 10.6075 5.02513 10.4749 5.02513C10.3423 5.02513 10.2151 5.07781 10.1213 5.17157L8 7.29289L5.87868 5.17157C5.78491 5.07781 5.65773 5.02513 5.52513 5.02513C5.39252 5.02513 5.26534 5.07781 5.17157 5.17157C5.0778 5.26534 5.02513 5.39252 5.02513 5.52513C5.02513 5.65774 5.0778 5.78491 5.17157 5.87868L7.29289 8L5.17157 10.1213C5.0778 10.2151 5.02513 10.3423 5.02513 10.4749C5.02513 10.6075 5.0778 10.7347 5.17157 10.8284Z" fill="white"/>
</svg>
