<svg width="11" height="10" viewBox="0 0 11 10" fill="none" xmlns="http://www.w3.org/2000/svg">
<path d="M4.69878 2.09867L3.39744 3.4H6.26678C7.46909 3.4 8.62216 3.87762 9.47233 4.72778C10.3225 5.57795 10.8001 6.73102 10.8001 7.93333V8.46667C10.8001 8.67884 10.7158 8.88232 10.5658 9.03235C10.4158 9.18238 10.2123 9.26667 10.0001 9.26667C9.78794 9.26667 9.58445 9.18238 9.43442 9.03235C9.2844 8.88232 9.20011 8.67884 9.20011 8.46667V7.93333C9.20011 7.54812 9.12424 7.16668 8.97682 6.8108C8.82941 6.45491 8.61334 6.13154 8.34096 5.85915C8.06857 5.58677 7.7452 5.3707 7.38931 5.22329C7.03343 5.07587 6.65199 5 6.26678 5H3.39744L4.69878 6.30133C4.77738 6.37457 4.84042 6.46289 4.88414 6.56103C4.92787 6.65916 4.95138 6.76509 4.95327 6.87251C4.95517 6.97993 4.93541 7.08662 4.89517 7.18624C4.85494 7.28585 4.79505 7.37634 4.71908 7.45231C4.64312 7.52827 4.55263 7.58816 4.45301 7.6284C4.3534 7.66863 4.2467 7.68839 4.13929 7.6865C4.03187 7.6846 3.92593 7.66109 3.8278 7.61737C3.72967 7.57364 3.64135 7.5106 3.56811 7.432L0.901443 4.76534C0.751629 4.61533 0.66748 4.412 0.66748 4.2C0.66748 3.988 0.751629 3.78467 0.901443 3.63467L3.56811 0.968C3.64135 0.889401 3.72967 0.826359 3.8278 0.782634C3.92593 0.738909 4.03187 0.715399 4.13929 0.713503C4.2467 0.711608 4.3534 0.731367 4.45301 0.771603C4.55263 0.811839 4.64312 0.871727 4.71908 0.947693C4.79505 1.02366 4.85494 1.11415 4.89517 1.21376C4.93541 1.31338 4.95517 1.42007 4.95327 1.52749C4.95138 1.63491 4.92787 1.74084 4.88414 1.83898C4.84042 1.93711 4.77738 2.02543 4.69878 2.09867Z" fill="white"/>
</svg>
