<svg width="15" height="15" viewBox="0 0 15 15" fill="none" xmlns="http://www.w3.org/2000/svg">
<path d="M5.50003 -3.05068e-05C6.52393 -9.46036e-05 7.52751 0.285653 8.39781 0.825044C9.2681 1.36444 9.97055 2.13605 10.4261 3.05303C10.8816 3.97001 11.0721 4.99594 10.9762 6.01533C10.8802 7.03472 10.5017 8.00708 9.88304 8.82297L14.03 12.97C14.163 13.104 14.2405 13.2832 14.2472 13.4718C14.2538 13.6605 14.1891 13.8447 14.0659 13.9877C13.9427 14.1307 13.7701 14.222 13.5825 14.2434C13.395 14.2648 13.2062 14.2146 13.054 14.103L12.97 14.03L8.82304 9.88297C8.12761 10.4101 7.31671 10.7643 6.45736 10.9161C5.59801 11.0679 4.71487 11.0131 3.8809 10.7561C3.04694 10.4991 2.28609 10.0474 1.66122 9.43824C1.03635 8.82908 0.565403 8.07998 0.287285 7.25283C0.00916761 6.42567 -0.0681353 5.54421 0.0617636 4.68127C0.191662 3.81833 0.525034 2.99869 1.03433 2.29007C1.54363 1.58144 2.21424 1.00418 2.99075 0.605972C3.76726 0.207763 4.62738 4.15532e-05 5.50003 -3.05068e-05ZM5.50003 1.49997C4.43917 1.49997 3.42175 1.9214 2.67161 2.67154C1.92146 3.42169 1.50003 4.4391 1.50003 5.49997C1.50003 6.56084 1.92146 7.57825 2.67161 8.3284C3.42175 9.07854 4.43917 9.49997 5.50003 9.49997C6.5609 9.49997 7.57832 9.07854 8.32846 8.3284C9.07861 7.57825 9.50004 6.56084 9.50004 5.49997C9.50004 4.4391 9.07861 3.42169 8.32846 2.67154C7.57832 1.9214 6.5609 1.49997 5.50003 1.49997Z" fill="#6A6A6A"/>
</svg>
