<svg width="10" height="10" viewBox="0 0 10 10" fill="none" xmlns="http://www.w3.org/2000/svg">
<path d="M5 0C6.32608 0 7.59785 0.526784 8.53553 1.46447C9.47322 2.40215 10 3.67392 10 5C10 6.32608 9.47322 7.59785 8.53553 8.53553C7.59785 9.47322 6.32608 10 5 10C3.67392 10 2.40215 9.47322 1.46447 8.53553C0.526784 7.59785 0 6.32608 0 5C0 3.67392 0.526784 2.40215 1.46447 1.46447C2.40215 0.526784 3.67392 0 5 0ZM5 1C3.93913 1 2.92172 1.42143 2.17157 2.17157C1.42143 2.92172 1 3.93913 1 5C1 6.06087 1.42143 7.07828 2.17157 7.82843C2.92172 8.57857 3.93913 9 5 9C6.06087 9 7.07828 8.57857 7.82843 7.82843C8.57857 7.07828 9 6.06087 9 5C9 3.93913 8.57857 2.92172 7.82843 2.17157C7.07828 1.42143 6.06087 1 5 1ZM4.5 2.5C4.61703 2.49996 4.73036 2.54097 4.82026 2.61589C4.91016 2.69081 4.97094 2.79489 4.992 2.91L5 3V5H6.5C6.62495 4.99977 6.74545 5.04633 6.83778 5.13051C6.93012 5.21469 6.98759 5.33039 6.99888 5.45482C7.01016 5.57926 6.97446 5.70341 6.89878 5.80283C6.8231 5.90225 6.71295 5.96974 6.59 5.992L6.5 6H4.5C4.38297 6.00004 4.26964 5.95903 4.17974 5.88411C4.08984 5.80919 4.02906 5.70511 4.008 5.59L4 5.5V3C4 2.86739 4.05268 2.74021 4.14645 2.64645C4.24021 2.55268 4.36739 2.5 4.5 2.5Z" fill="#6A6A6A"/>
</svg>
