<svg width="17" height="17" viewBox="0 0 17 17" fill="none" xmlns="http://www.w3.org/2000/svg">
<path fill-rule="evenodd" clip-rule="evenodd" d="M5.00066 4.1501C5.24642 4.14989 5.47106 4.01107 5.58119 3.79136C5.58109 3.79156 5.58128 3.79117 5.58119 3.79136L6.30508 2.34357C6.36437 2.225 6.48556 2.1501 6.61813 2.1501H10.3821C10.4981 2.1501 10.6053 2.20744 10.6701 2.30122C10.6793 2.31461 10.6877 2.32875 10.6951 2.34357L11.4187 3.79079C11.4186 3.79058 11.4188 3.79099 11.4187 3.79079C11.5289 4.01047 11.7538 4.14989 11.9995 4.1501C11.9994 4.1501 11.9997 4.1501 11.9995 4.1501L14.0001 4.1501C14.7457 4.1501 15.3501 4.75451 15.3501 5.5001V13.5001C15.3501 14.2457 14.7457 14.8501 14.0001 14.8501H3.0001C2.25451 14.8501 1.6501 14.2457 1.6501 13.5001V5.5001C1.6501 4.75451 2.25451 4.1501 3.0001 4.1501L5.00066 4.1501C5.00084 4.1501 5.00047 4.1501 5.00066 4.1501ZM5.26035 1.56251C5.5655 1.12044 6.07128 0.850098 6.61813 0.850098H10.3821C11.007 0.850098 11.5784 1.2032 11.8579 1.7622L12.4018 2.8501L14.0001 2.8501C15.4637 2.8501 16.6501 4.03654 16.6501 5.5001V13.5001C16.6501 14.9637 15.4637 16.1501 14.0001 16.1501H3.0001C1.53654 16.1501 0.350098 14.9637 0.350098 13.5001V5.5001C0.350098 4.03654 1.53654 2.8501 3.0001 2.8501L4.59838 2.8501L5.14233 1.7622C5.17726 1.69232 5.21676 1.62566 5.26035 1.56251ZM11.2001 9.0001C11.2001 7.50893 9.99127 6.3001 8.5001 6.3001C7.00893 6.3001 5.8001 7.50893 5.8001 9.0001C5.8001 10.4913 7.00893 11.7001 8.5001 11.7001C9.99127 11.7001 11.2001 10.4913 11.2001 9.0001ZM12.5001 9.0001C12.5001 11.2092 10.7092 13.0001 8.5001 13.0001C6.29096 13.0001 4.5001 11.2092 4.5001 9.0001C4.5001 6.79096 6.29096 5.0001 8.5001 5.0001C10.7092 5.0001 12.5001 6.79096 12.5001 9.0001Z" fill="black"/>
</svg>
