<svg width="15" height="17" viewBox="0 0 15 17" fill="none" xmlns="http://www.w3.org/2000/svg">
<path d="M1.5 0C1.10218 0 0.720644 0.158035 0.43934 0.43934C0.158035 0.720644 0 1.10218 0 1.5V14.5C0 14.8978 0.158035 15.2794 0.43934 15.5607C0.720644 15.842 1.10218 16 1.5 16H6.257C6.00231 15.6915 5.782 15.3562 5.6 15H1.5C1.36739 15 1.24021 14.9473 1.14645 14.8536C1.05268 14.7598 1 14.6326 1 14.5V1.5C1 1.36739 1.05268 1.24021 1.14645 1.14645C1.24021 1.05268 1.36739 1 1.5 1H8.5C8.63261 1 8.75979 1.05268 8.85355 1.14645C8.94732 1.24021 9 1.36739 9 1.5V7.207C9.32688 7.11447 9.66165 7.05254 10 7.022V1.5C10 1.10218 9.84196 0.720644 9.56066 0.43934C9.27936 0.158035 8.89782 0 8.5 0H1.5ZM5 12.5C5 12.332 5.008 12.165 5.022 12H3.5C3.36739 12 3.24021 12.0527 3.14645 12.1464C3.05268 12.2402 3 12.3674 3 12.5C3 12.6326 3.05268 12.7598 3.14645 12.8536C3.24021 12.9473 3.36739 13 3.5 13H5.022C5.00718 12.8337 4.99984 12.6669 5 12.5ZM10.5 8C11.6935 8 12.8381 8.47411 13.682 9.31802C14.5259 10.1619 15 11.3065 15 12.5C15 13.6935 14.5259 14.8381 13.682 15.682C12.8381 16.5259 11.6935 17 10.5 17C9.30653 17 8.16193 16.5259 7.31802 15.682C6.47411 14.8381 6 13.6935 6 12.5C6 11.3065 6.47411 10.1619 7.31802 9.31802C8.16193 8.47411 9.30653 8 10.5 8ZM12.853 12.854L12.856 12.851C12.9476 12.7583 12.9993 12.6334 13 12.503V12.497C12.9992 12.3657 12.9467 12.24 12.854 12.147L10.854 10.147C10.7602 10.0531 10.633 10.0003 10.5004 10.0002C10.3677 10.0001 10.2404 10.0527 10.1465 10.1465C10.0526 10.2403 9.99981 10.3675 9.99972 10.5001C9.99963 10.6328 10.0522 10.7601 10.146 10.854L11.293 12H8.5C8.36739 12 8.24021 12.0527 8.14645 12.1464C8.05268 12.2402 8 12.3674 8 12.5C8 12.6326 8.05268 12.7598 8.14645 12.8536C8.24021 12.9473 8.36739 13 8.5 13H11.293L10.146 14.146C10.0521 14.2399 9.99937 14.3672 9.99937 14.5C9.99937 14.6328 10.0521 14.7601 10.146 14.854C10.2399 14.9479 10.3672 15.0006 10.5 15.0006C10.6328 15.0006 10.7601 14.9479 10.854 14.854L12.854 12.854H12.853Z" fill="#6A6A6A"/>
</svg>
