<svg width="16" height="17" viewBox="0 0 16 17" fill="none" xmlns="http://www.w3.org/2000/svg">
<path d="M0.5 1.5C0.5 1.10218 0.658035 0.720644 0.93934 0.43934C1.22064 0.158035 1.60218 0 2 0H9C9.39782 0 9.77936 0.158035 10.0607 0.43934C10.342 0.720644 10.5 1.10218 10.5 1.5V7.022C9.21919 7.13895 8.01985 7.70098 7.11042 8.61042C6.20098 9.51985 5.63895 10.7192 5.522 12H4C3.86739 12 3.74021 12.0527 3.64645 12.1464C3.55268 12.2402 3.5 12.3674 3.5 12.5C3.5 12.6326 3.55268 12.7598 3.64645 12.8536C3.74021 12.9473 3.86739 13 4 13H5.522C5.62113 14.1018 6.0517 15.1477 6.757 16H2C1.60218 16 1.22064 15.842 0.93934 15.5607C0.658035 15.2794 0.5 14.8978 0.5 14.5V1.5ZM11 8C12.1935 8 13.3381 8.47411 14.182 9.31802C15.0259 10.1619 15.5 11.3065 15.5 12.5C15.5 13.6935 15.0259 14.8381 14.182 15.682C13.3381 16.5259 12.1935 17 11 17C9.80653 17 8.66193 16.5259 7.81802 15.682C6.97411 14.8381 6.5 13.6935 6.5 12.5C6.5 11.3065 6.97411 10.1619 7.81802 9.31802C8.66193 8.47411 9.80653 8 11 8ZM13.353 12.854L13.356 12.851C13.4476 12.7583 13.4993 12.6334 13.5 12.503V12.497C13.4992 12.3657 13.4467 12.24 13.354 12.147L11.354 10.147C11.2602 10.0531 11.133 10.0003 11.0004 10.0002C10.8677 10.0001 10.7404 10.0527 10.6465 10.1465C10.5526 10.2403 10.4998 10.3675 10.4997 10.5001C10.4996 10.6328 10.5522 10.7601 10.646 10.854L11.793 12H9C8.86739 12 8.74021 12.0527 8.64645 12.1464C8.55268 12.2402 8.5 12.3674 8.5 12.5C8.5 12.6326 8.55268 12.7598 8.64645 12.8536C8.74021 12.9473 8.86739 13 9 13H11.793L10.646 14.146C10.5521 14.2399 10.4994 14.3672 10.4994 14.5C10.4994 14.6328 10.5521 14.7601 10.646 14.854C10.7399 14.9479 10.8672 15.0006 11 15.0006C11.1328 15.0006 11.2601 14.9479 11.354 14.854L13.354 12.854H13.353Z" fill="#AAAAAA"/>
</svg>
