<svg width="48" height="48" viewBox="0 0 48 48" fill="none" xmlns="http://www.w3.org/2000/svg">
<circle cx="24" cy="24" r="24" fill="#FAFAFA"/>
<path d="M16.75 13C16.75 11.7574 17.7574 10.75 19 10.75H29C30.2426 10.75 31.25 11.7574 31.25 13V35C31.25 36.2426 30.2426 37.25 29 37.25H19C17.7574 37.25 16.75 36.2426 16.75 35V13Z" stroke="black" stroke-width="1.5" stroke-linecap="round"/>
<path d="M20 34H28" stroke="black" stroke-width="1.5" stroke-linecap="round"/>
<path d="M40 48C42.1217 48 44.1566 47.1571 45.6569 45.6569C47.1571 44.1566 48 42.1217 48 40C48 37.8783 47.1571 35.8434 45.6569 34.3431C44.1566 32.8429 42.1217 32 40 32C37.8783 32 35.8434 32.8429 34.3431 34.3431C32.8429 35.8434 32 37.8783 32 40C32 42.1217 32.8429 44.1566 34.3431 45.6569C35.8434 47.1571 37.8783 48 40 48ZM40.854 43.354C40.7601 43.4479 40.6328 43.5006 40.5 43.5006C40.3672 43.5006 40.2399 43.4479 40.146 43.354C40.0521 43.2601 39.9994 43.1328 39.9994 43C39.9994 42.8672 40.0521 42.7399 40.146 42.646L42.293 40.5H36.5C36.3674 40.5 36.2402 40.4473 36.1464 40.3536C36.0527 40.2598 36 40.1326 36 40C36 39.8674 36.0527 39.7402 36.1464 39.6464C36.2402 39.5527 36.3674 39.5 36.5 39.5H42.293L40.146 37.354C40.0521 37.2601 39.9994 37.1328 39.9994 37C39.9994 36.8672 40.0521 36.7399 40.146 36.646C40.2399 36.5521 40.3672 36.4994 40.5 36.4994C40.6328 36.4994 40.7601 36.5521 40.854 36.646L43.854 39.646C43.9006 39.6924 43.9375 39.7476 43.9627 39.8084C43.9879 39.8691 44.0009 39.9342 44.0009 40C44.0009 40.0658 43.9879 40.1309 43.9627 40.1916C43.9375 40.2524 43.9006 40.3076 43.854 40.354L40.854 43.354Z" fill="#33CC55"/>
<path d="M40.854 43.3541C40.7601 43.448 40.6328 43.5008 40.5 43.5008C40.3672 43.5008 40.2399 43.448 40.146 43.3541C40.0521 43.2603 39.9994 43.1329 39.9994 43.0001C39.9994 42.8674 40.0521 42.74 40.146 42.6461L42.293 40.5001H36.5C36.3674 40.5001 36.2402 40.4475 36.1464 40.3537C36.0527 40.2599 36 40.1328 36 40.0001C36 39.8675 36.0527 39.7404 36.1464 39.6466C36.2402 39.5528 36.3674 39.5001 36.5 39.5001H42.293L40.146 37.3541C40.0521 37.2603 39.9994 37.1329 39.9994 37.0001C39.9994 36.8674 40.0521 36.74 40.146 36.6461C40.2399 36.5523 40.3672 36.4995 40.5 36.4995C40.6328 36.4995 40.7601 36.5523 40.854 36.6461L43.854 39.6461C43.9006 39.6926 43.9375 39.7478 43.9627 39.8085C43.9879 39.8693 44.0009 39.9344 44.0009 40.0001C44.0009 40.0659 43.9879 40.131 43.9627 40.1918C43.9375 40.2525 43.9006 40.3077 43.854 40.3541L40.854 43.3541Z" fill="white"/>
</svg>
