<svg width="229" height="24" viewBox="0 0 229 24" fill="none" xmlns="http://www.w3.org/2000/svg">
<path d="M8.7936 23.3891C9.98004 23.3891 11.1665 23.2495 11.8993 23.0749V20.0029H9.77067C7.43269 20.0029 6.66499 19.6887 6.66499 17.8735V9.18109H11.8993V6.03927H6.66499V1.74546H3.76869L2.9661 6.03927H0V9.18109H2.89631V18.048C2.89631 21.9578 4.92023 23.3891 8.7936 23.3891Z" fill="#33CC55"/>
<path d="M21.5492 23.7382C26.2251 23.7382 29.3308 21.4342 29.3308 17.8735V17.5593H25.597V17.8385C25.597 19.4095 24.4804 20.3869 21.5841 20.3869C17.955 20.3869 16.8034 18.7811 16.6638 15.6044H29.261C29.3657 15.0807 29.4704 14.1382 29.4704 13.2305C29.4704 8.48291 26.1902 5.69018 21.5143 5.69018C16.3498 5.69018 13.1394 9.32073 13.1394 14.6967C13.1394 20.1076 15.8264 23.7382 21.5492 23.7382ZM21.4445 8.86691C24.4106 8.86691 26.0158 10.1236 25.8762 13.0909H16.6987C16.9081 10.4029 18.1643 8.86691 21.4445 8.86691Z" fill="#33CC55"/>
<path d="M36.2804 23.3891V0H32.5117V23.3891H36.2804Z" fill="#33CC55"/>
<path d="M47.62 23.7731C52.296 23.7731 55.4714 20.9105 55.4714 16.7913V16.4771H51.7376V16.6865C51.7376 19.2349 50.4116 20.352 47.5153 20.352C44.1654 20.352 42.8743 18.5018 42.8743 14.7316C42.8743 10.9615 44.1654 9.07636 47.5153 9.07636C50.4116 9.07636 51.7376 10.2284 51.7376 12.7767V12.9862H55.4714V12.672C55.4714 8.51782 52.3309 5.69018 47.7596 5.69018C42.3159 5.69018 39.1405 9.32073 39.1405 14.7316C39.1405 20.1076 42.2112 23.7731 47.62 23.7731Z" fill="#33CC55"/>
<path fill-rule="evenodd" clip-rule="evenodd" d="M66.4348 23.7382C61.0958 23.7382 57.7808 20.1076 57.7808 14.6967C57.7808 9.32073 61.0958 5.69018 66.4348 5.69018V9.04146C62.7708 9.04146 61.4797 10.8218 61.4797 14.6967C61.4797 18.6065 62.7708 20.3869 66.4348 20.3869V23.7382Z" fill="#33CC55"/>
<path d="M66.4348 23.7382C71.7389 23.7382 74.9493 20.1076 74.9493 14.6967C74.9493 9.32073 71.7389 5.69018 66.4348 5.69018V9.04146C70.0639 9.04146 71.3201 10.8218 71.3201 14.6967C71.3201 18.6065 70.0639 20.3869 66.4348 20.3869V23.7382Z" fill="#33CC55"/>
<path d="M74.6134 23.7382C79.9175 23.7382 83.1278 20.1076 83.1278 14.6967C83.1278 9.32073 79.9175 5.69019 74.6134 5.69019V9.04146C78.2425 9.04146 79.4987 10.8218 79.4987 14.6967C79.4987 18.6066 78.2425 20.3869 74.6134 20.3869V23.7382Z" fill="#33CC55"/>
<path fill-rule="evenodd" clip-rule="evenodd" d="M83.6526 22.7111C86.3017 21.2687 87.8051 18.3996 87.8051 14.6967C87.8051 11.0177 86.3017 8.15617 83.6526 6.71618V11.3513C84.0182 12.2125 84.176 13.323 84.176 14.6967C84.176 16.0829 84.0182 17.2013 83.6526 18.0677V22.7111Z" fill="#33CC55"/>
<path d="M103.447 23.3891V12.0785C103.447 9.77455 104.284 8.90182 106.553 8.90182C108.751 8.90182 109.414 9.73964 109.414 12.0436V12.7418H113.183V11.5898C113.183 8.34328 111.787 5.69018 108.158 5.69018C105.61 5.69018 104.005 7.08655 103.307 8.69237H103.133V5.93455H99.6783V23.3891H103.447Z" fill="#33CC55"/>
<path d="M123.304 23.7382C127.98 23.7382 131.086 21.4342 131.086 17.8735V17.5593H127.352V17.8385C127.352 19.4095 126.235 20.3869 123.339 20.3869C119.71 20.3869 118.558 18.7811 118.419 15.6044H131.016C131.121 15.0807 131.225 14.1382 131.225 13.2305C131.225 8.48291 127.945 5.69018 123.269 5.69018C118.105 5.69018 114.894 9.32073 114.894 14.6967C114.894 20.1076 117.581 23.7382 123.304 23.7382ZM123.2 8.86691C126.166 8.86691 127.771 10.1236 127.631 13.0909H118.454C118.663 10.4029 119.919 8.86691 123.2 8.86691Z" fill="#33CC55"/>
<path d="M141.264 23.3891L144.404 13.7193L145.521 9.35564H145.8L146.952 13.7193L150.057 23.3891H154.943L159.235 6.03928H155.327L153.303 15.7091L152.605 20.2473H152.326L151.244 15.7091L148.173 6.03928H143.288L140.252 15.6742L139.1 20.2473H138.821L138.123 15.6742L136.134 6.03928H132.051L136.344 23.3891H141.264Z" fill="#33CC55"/>
<path d="M165.354 23.7382C168.635 23.7382 170.624 22.3069 171.636 20.6662H171.81V23.3891H175.3V12.8465C175.3 8.62255 172.857 5.69018 168.006 5.69018C163.365 5.69018 160.329 8.48291 160.329 12.3578V12.7069H163.959V12.1833C163.959 9.87927 165.04 9.00655 167.797 9.00655C170.519 9.00655 171.705 9.77455 171.705 12.3578V13.3004L165.634 14.208C161.935 14.7316 159.841 16.2327 159.841 19.0953C159.841 22.1324 162.249 23.7382 165.354 23.7382ZM163.505 18.816C163.505 17.5244 164.203 17.0705 166.192 16.7913L171.705 15.9535V16.2676C171.705 19.7585 169.018 20.736 166.576 20.736C164.377 20.736 163.505 20.1775 163.505 18.816Z" fill="#33CC55"/>
<path d="M182.677 23.3891V12.0785C182.677 9.77455 183.514 8.90182 185.783 8.90182C187.981 8.90182 188.644 9.73964 188.644 12.0436V12.7418H192.413V11.5898C192.413 8.34328 191.017 5.69018 187.388 5.69018C184.84 5.69018 183.235 7.08655 182.537 8.69237H182.363V5.93455H178.908V23.3891H182.677Z" fill="#33CC55"/>
<path d="M201.766 23.7382C204.733 23.7382 206.652 22.5164 207.489 20.5265H207.629V23.3891H211.083V2.08074e-06H207.35V8.72727H207.245C206.477 7.15637 204.628 5.69018 201.557 5.69018C196.776 5.69018 194.124 9.216 194.124 14.6967C194.124 20.2124 196.811 23.7382 201.766 23.7382ZM197.893 14.6967C197.893 10.4378 199.289 8.90182 202.604 8.90182C205.675 8.90182 207.35 10.2633 207.35 13.1607V16.2676C207.35 19.1651 205.675 20.5265 202.604 20.5265C199.254 20.5265 197.893 18.9905 197.893 14.6967Z" fill="#33CC55"/>
<path d="M221.983 23.7382C226.379 23.7382 228.927 21.8531 228.927 18.6415C228.927 15.7789 227.182 14.2778 223.832 13.6145L220.901 13.056C218.458 12.5673 217.83 12.1833 217.83 10.8567C217.83 9.53018 218.493 8.79709 221.25 8.79709C224.355 8.79709 224.914 9.94909 224.914 11.5549V11.9738H228.508V11.6596C228.508 7.71491 225.437 5.69018 221.354 5.69018C216.818 5.69018 214.236 7.78473 214.236 10.9265C214.236 14.0684 216.19 15.4647 219.296 16.0233L221.983 16.4771C224.53 16.9309 225.367 17.3498 225.367 18.7462C225.367 20.0378 224.844 20.6662 222.052 20.6662C218.737 20.6662 217.9 19.968 217.9 18.0829V17.4545H214.271V17.5244C214.271 21.7484 216.923 23.7382 221.983 23.7382Z" fill="#33CC55"/>
</svg>
