<svg width="475" height="40" viewBox="0 0 475 40" fill="none" xmlns="http://www.w3.org/2000/svg">
<path d="M5.40599 31.9998V1.17977H0.437988V31.9998H5.40599Z" fill="#33CC55"/>
<path d="M20.2622 32.4598C26.4262 32.4598 30.5202 29.4238 30.5202 24.7318V24.3178H25.5982V24.6858C25.5982 26.7558 24.1262 28.0438 20.3082 28.0438C15.5242 28.0438 14.0062 25.9278 13.8222 21.7418H30.4282C30.5662 21.0518 30.7042 19.8098 30.7042 18.6138C30.7042 12.3578 26.3802 8.67777 20.2162 8.67777C13.4082 8.67777 9.17619 13.4618 9.17619 20.5458C9.17619 27.6758 12.7182 32.4598 20.2622 32.4598ZM20.1242 12.8638C24.0342 12.8638 26.1502 14.5198 25.9662 18.4298H13.8682C14.1442 14.8878 15.8002 12.8638 20.1242 12.8638Z" fill="#33CC55"/>
<path d="M44.5071 32.4598C50.3031 32.4598 53.6611 29.9758 53.6611 25.7438C53.6611 21.9718 51.3611 19.9938 46.9451 19.1198L43.0811 18.3838C39.8611 17.7398 39.0331 17.2338 39.0331 15.4858C39.0331 13.7378 39.9071 12.7718 43.5411 12.7718C47.6351 12.7718 48.3711 14.2898 48.3711 16.4058V16.9578H53.1091V16.5438C53.1091 11.3458 49.0611 8.67777 43.6791 8.67777C37.6991 8.67777 34.2951 11.4378 34.2951 15.5778C34.2951 19.7178 36.8711 21.5578 40.9651 22.2938L44.5071 22.8918C47.8651 23.4898 48.9691 24.0418 48.9691 25.8818C48.9691 27.5838 48.2791 28.4118 44.5991 28.4118C40.2291 28.4118 39.1251 27.4918 39.1251 25.0078V24.1798H34.3411V24.2718C34.3411 29.8378 37.8371 32.4598 44.5071 32.4598Z" fill="#33CC55"/>
<path d="M71.3064 31.9998V17.0958C71.3064 14.0598 72.4104 12.9098 75.4004 12.9098C78.2984 12.9098 79.1724 14.0138 79.1724 17.0498V17.9698H84.1404V16.4518C84.1404 12.1738 82.3004 8.67777 77.5164 8.67777C74.1584 8.67777 72.0424 10.5178 71.1224 12.6338H70.8924V8.99977H66.3384V31.9998H71.3064Z" fill="#33CC55"/>
<path d="M100.151 6.23977L106.499 0.489765V0.259766H99.9209L94.9529 6.00977V6.23977H100.151ZM97.4829 32.4598C103.647 32.4598 107.741 29.4238 107.741 24.7318V24.3178H102.819V24.6858C102.819 26.7558 101.347 28.0438 97.5289 28.0438C92.7449 28.0438 91.2269 25.9278 91.0429 21.7418H107.649C107.787 21.0518 107.925 19.8098 107.925 18.6138C107.925 12.3578 103.601 8.67777 97.4369 8.67777C90.6289 8.67777 86.3969 13.4618 86.3969 20.5458C86.3969 27.6758 89.9389 32.4598 97.4829 32.4598ZM97.3449 12.8638C101.255 12.8638 103.371 14.5198 103.187 18.4298H91.0889C91.3649 14.8878 93.0209 12.8638 97.3449 12.8638Z" fill="#33CC55"/>
<path d="M122.372 32.5058C128.536 32.5058 132.722 28.7338 132.722 23.3058V22.8918H127.8V23.1678C127.8 26.5258 126.052 27.9978 122.234 27.9978C117.818 27.9978 116.116 25.5598 116.116 20.5918C116.116 15.6238 117.818 13.1398 122.234 13.1398C126.052 13.1398 127.8 14.6578 127.8 18.0158V18.2918H132.722V17.8778C132.722 12.4038 128.582 8.67777 122.556 8.67777C115.38 8.67777 111.194 13.4618 111.194 20.5918C111.194 27.6758 115.242 32.5058 122.372 32.5058Z" fill="#33CC55"/>
<path d="M147.174 32.4598C154.166 32.4598 158.398 27.6758 158.398 20.5458C158.398 13.4618 154.166 8.67777 147.174 8.67777C140.136 8.67777 135.766 13.4618 135.766 20.5458C135.766 27.6758 140.136 32.4598 147.174 32.4598ZM147.174 28.0438C142.344 28.0438 140.642 25.6978 140.642 20.5458C140.642 15.4398 142.344 13.0938 147.174 13.0938C151.958 13.0938 153.614 15.4398 153.614 20.5458C153.614 25.6978 151.958 28.0438 147.174 28.0438Z" fill="#33CC55"/>
<path d="M167.08 31.9998V18.6598C167.08 14.5198 168.828 12.9558 172.6 12.9558C176.74 12.9558 177.982 14.6578 177.982 18.7518V31.9998H182.95V18.7058C182.95 14.5198 184.698 12.9558 188.47 12.9558C192.61 12.9558 193.852 14.6578 193.852 18.7518V31.9998H198.82V17.6478C198.82 12.4498 196.198 8.67777 190.31 8.67777C185.802 8.67777 183.456 11.0238 182.398 13.4158H182.26C181.156 10.5178 178.672 8.67777 174.67 8.67777C170.3 8.67777 167.908 10.9778 166.85 13.4158H166.666V9.13777H162.112V31.9998H167.08Z" fill="#33CC55"/>
<path d="M208.313 39.9578V28.4578H208.451C209.463 30.5738 211.993 32.4598 216.087 32.4598C222.297 32.4598 225.747 27.8138 225.747 20.5918C225.747 13.3238 222.205 8.67777 215.765 8.67777C211.809 8.67777 209.187 10.2418 208.129 12.9098H207.899V9.13777H203.391V39.9578H208.313ZM208.313 22.6158V18.5218C208.313 14.7038 210.521 12.9098 214.569 12.9098C218.985 12.9098 220.779 14.9338 220.779 20.5918C220.779 26.2038 218.939 28.2278 214.569 28.2278C210.521 28.2278 208.313 26.4338 208.313 22.6158Z" fill="#33CC55"/>
<path d="M240.065 32.4598C246.229 32.4598 250.323 29.4238 250.323 24.7318V24.3178H245.401V24.6858C245.401 26.7558 243.929 28.0438 240.111 28.0438C235.327 28.0438 233.809 25.9278 233.625 21.7418H250.231C250.369 21.0518 250.507 19.8098 250.507 18.6138C250.507 12.3578 246.183 8.67777 240.019 8.67777C233.211 8.67777 228.979 13.4618 228.979 20.5458C228.979 27.6758 232.521 32.4598 240.065 32.4598ZM239.927 12.8638C243.837 12.8638 245.953 14.5198 245.769 18.4298H233.671C233.947 14.8878 235.603 12.8638 239.927 12.8638Z" fill="#33CC55"/>
<path d="M259.439 31.9998V18.7978C259.439 14.5198 261.279 12.9558 265.327 12.9558C269.513 12.9558 270.801 14.6578 270.801 18.7518V31.9998H275.769V17.6478C275.769 12.4498 273.101 8.67777 267.167 8.67777C262.705 8.67777 260.267 10.9778 259.209 13.4158H259.025V9.13777H254.471V31.9998H259.439Z" fill="#33CC55"/>
<path d="M290.005 32.4598C295.801 32.4598 299.159 29.9758 299.159 25.7438C299.159 21.9718 296.859 19.9938 292.443 19.1198L288.579 18.3838C285.359 17.7398 284.531 17.2338 284.531 15.4858C284.531 13.7378 285.405 12.7718 289.039 12.7718C293.133 12.7718 293.869 14.2898 293.869 16.4058V16.9578H298.607V16.5438C298.607 11.3458 294.559 8.67777 289.177 8.67777C283.197 8.67777 279.793 11.4378 279.793 15.5778C279.793 19.7178 282.369 21.5578 286.463 22.2938L290.005 22.8918C293.363 23.4898 294.467 24.0418 294.467 25.8818C294.467 27.5838 293.777 28.4118 290.097 28.4118C285.727 28.4118 284.623 27.4918 284.623 25.0078V24.1798H279.839V24.2718C279.839 29.8378 283.335 32.4598 290.005 32.4598Z" fill="#33CC55"/>
<path d="M313.333 32.4598C319.497 32.4598 323.591 29.4238 323.591 24.7318V24.3178H318.669V24.6858C318.669 26.7558 317.197 28.0438 313.379 28.0438C308.595 28.0438 307.077 25.9278 306.893 21.7418H323.499C323.637 21.0518 323.775 19.8098 323.775 18.6138C323.775 12.3578 319.45 8.67777 313.286 8.67777C306.478 8.67777 302.246 13.4618 302.246 20.5458C302.246 27.6758 305.789 32.4598 313.333 32.4598ZM313.195 12.8638C317.105 12.8638 319.22 14.5198 319.036 18.4298H306.939C307.215 14.8878 308.871 12.8638 313.195 12.8638Z" fill="#33CC55"/>
<path d="M337.577 32.4598C343.373 32.4598 346.731 29.9758 346.731 25.7438C346.731 21.9718 344.431 19.9938 340.015 19.1198L336.151 18.3838C332.931 17.7398 332.103 17.2338 332.103 15.4858C332.103 13.7378 332.977 12.7718 336.611 12.7718C340.705 12.7718 341.441 14.2898 341.441 16.4058V16.9578H346.179V16.5438C346.179 11.3458 342.131 8.67777 336.749 8.67777C330.769 8.67777 327.365 11.4378 327.365 15.5778C327.365 19.7178 329.941 21.5578 334.035 22.2938L337.577 22.8918C340.935 23.4898 342.039 24.0418 342.039 25.8818C342.039 27.5838 341.349 28.4118 337.669 28.4118C333.299 28.4118 332.195 27.4918 332.195 25.0078V24.1798H327.411V24.2718C327.411 29.8378 330.907 32.4598 337.577 32.4598Z" fill="#33CC55"/>
<path d="M368.977 31.9998C370.541 31.9998 372.105 31.8158 373.071 31.5858V27.5378H370.265C367.183 27.5378 366.171 27.1238 366.171 24.7318V13.2778H373.071V9.13777H366.171V3.47977H362.353L361.295 9.13777H357.385V13.2778H361.203V24.9618C361.203 30.1138 363.871 31.9998 368.977 31.9998Z" fill="#33CC55"/>
<path d="M385.792 32.4598C391.956 32.4598 396.049 29.4238 396.049 24.7318V24.3178H391.128V24.6858C391.128 26.7558 389.655 28.0438 385.837 28.0438C381.053 28.0438 379.536 25.9278 379.352 21.7418H395.957C396.095 21.0518 396.233 19.8098 396.233 18.6138C396.233 12.3578 391.909 8.67777 385.745 8.67777C378.937 8.67777 374.705 13.4618 374.705 20.5458C374.705 27.6758 378.248 32.4598 385.792 32.4598ZM385.654 12.8638C389.564 12.8638 391.679 14.5198 391.495 18.4298H379.397C379.673 14.8878 381.33 12.8638 385.654 12.8638Z" fill="#33CC55"/>
<path d="M405.211 31.9998V1.17977H400.243V31.9998H405.211Z" fill="#33CC55"/>
<path d="M420.159 32.5058C426.323 32.5058 430.509 28.7338 430.509 23.3058V22.8918H425.587V23.1678C425.587 26.5258 423.839 27.9978 420.021 27.9978C415.605 27.9978 413.903 25.5598 413.903 20.5918C413.903 15.6238 415.605 13.1398 420.021 13.1398C423.839 13.1398 425.587 14.6578 425.587 18.0158V18.2918H430.509V17.8778C430.509 12.4038 426.369 8.67777 420.343 8.67777C413.167 8.67777 408.981 13.4618 408.981 20.5918C408.981 27.6758 413.029 32.5058 420.159 32.5058Z" fill="#33CC55"/>
<path d="M444.961 32.4598C451.953 32.4598 456.185 27.6758 456.185 20.5458C456.185 13.4618 451.953 8.67777 444.961 8.67777C437.923 8.67777 433.553 13.4618 433.553 20.5458C433.553 27.6758 437.923 32.4598 444.961 32.4598ZM444.961 28.0438C440.131 28.0438 438.429 25.6978 438.429 20.5458C438.429 15.4398 440.131 13.0938 444.961 13.0938C449.745 13.0938 451.401 15.4398 451.401 20.5458C451.401 25.6978 449.745 28.0438 444.961 28.0438Z" fill="#33CC55"/>
<path d="M455.961 32.4597C462.953 32.4597 467.185 27.6757 467.185 20.5457C467.185 13.4617 462.953 8.67773 455.961 8.67773V13.0937C460.745 13.0937 462.401 15.4397 462.401 20.5457C462.401 25.6977 460.745 28.0437 455.961 28.0437V32.4597Z" fill="#33CC55"/>
<path fill-rule="evenodd" clip-rule="evenodd" d="M468 31.458C471.933 29.7002 474.185 25.7473 474.185 20.5457C474.185 15.3778 471.933 11.4339 468 9.67851V14.935C468.994 16.1601 469.401 18.0135 469.401 20.5457C469.401 23.1008 468.994 24.9657 468 26.1966V31.458Z" fill="#33CC55"/>
</svg>
