<svg width="154" height="16" viewBox="0 0 154 16" fill="none" xmlns="http://www.w3.org/2000/svg">
<path d="M5.91549 15.7416C6.71362 15.7416 7.51174 15.6476 8.0047 15.5301V13.4626H6.57277C5 13.4626 4.48357 13.2511 4.48357 12.0294V6.17915H8.0047V4.06461H4.48357V1.17474H2.53521L1.99531 4.06461H0V6.17915H1.94836V12.1468C1.94836 14.7783 3.30986 15.7416 5.91549 15.7416Z" fill="#33CC55"/>
<path d="M14.4962 15.9765C17.6418 15.9765 19.731 14.4258 19.731 12.0294V11.8179H17.2192V12.0059C17.2192 13.0631 16.4681 13.721 14.5197 13.721C12.0784 13.721 11.3037 12.6402 11.2098 10.5022H19.684C19.7544 10.1498 19.8249 9.51542 19.8249 8.90455C19.8249 5.70925 17.6183 3.82966 14.4728 3.82966C10.9986 3.82966 8.83895 6.27313 8.83895 9.89134C8.83895 13.533 10.6465 15.9765 14.4962 15.9765ZM14.4258 5.96769C16.4211 5.96769 17.5009 6.81351 17.407 8.81057H11.2333C11.3742 7.00147 12.2192 5.96769 14.4258 5.96769Z" fill="#33CC55"/>
<path d="M24.406 15.7416V0H21.8708V15.7416H24.406Z" fill="#33CC55"/>
<path d="M32.0342 16C35.1797 16 37.3159 14.0734 37.3159 11.301V11.0896H34.8041V11.2305C34.8041 12.9457 33.9121 13.6975 31.9638 13.6975C29.7102 13.6975 28.8417 12.4523 28.8417 9.91483C28.8417 7.37739 29.7102 6.10866 31.9638 6.10866C33.9121 6.10866 34.8041 6.88399 34.8041 8.59912V8.74009H37.3159V8.52863C37.3159 5.73275 35.2032 3.82966 32.1281 3.82966C28.4661 3.82966 26.33 6.27313 26.33 9.91483C26.33 13.533 28.3957 16 32.0342 16Z" fill="#33CC55"/>
<path fill-rule="evenodd" clip-rule="evenodd" d="M44.691 15.9765C41.0994 15.9765 38.8694 13.533 38.8694 9.89134C38.8694 6.27313 41.0994 3.82966 44.691 3.82966V6.08517C42.2262 6.08517 41.3577 7.28341 41.3577 9.89134C41.3577 12.5228 42.2262 13.721 44.691 13.721V15.9765Z" fill="#33CC55"/>
<path d="M44.691 15.9765C48.2591 15.9765 50.4187 13.533 50.4187 9.89134C50.4187 6.27313 48.2591 3.82966 44.691 3.82966V6.08517C47.1323 6.08517 47.9774 7.28341 47.9774 9.89134C47.9774 12.5228 47.1323 13.721 44.691 13.721V15.9765Z" fill="#33CC55"/>
<path d="M50.1928 15.9765C53.7608 15.9765 55.9205 13.533 55.9205 9.89134C55.9205 6.27313 53.7608 3.82966 50.1928 3.82966V6.08517C52.6341 6.08517 53.4791 7.28341 53.4791 9.89134C53.4791 12.5228 52.6341 13.721 50.1928 13.721V15.9765Z" fill="#33CC55"/>
<path fill-rule="evenodd" clip-rule="evenodd" d="M56.2735 15.2853C58.0555 14.3145 59.0669 12.3835 59.0669 9.89134C59.0669 7.41527 58.0555 5.48935 56.2735 4.52019V7.63975C56.5194 8.21939 56.6256 8.96678 56.6256 9.89134C56.6256 10.8242 56.5194 11.577 56.2735 12.1601V15.2853Z" fill="#33CC55"/>
<path d="M69.5892 15.7416V8.12922C69.5892 6.57856 70.1526 5.99119 71.6784 5.99119C73.1573 5.99119 73.6033 6.55507 73.6033 8.10573V8.57563H76.1385V7.80029C76.1385 5.61527 75.1995 3.82966 72.7582 3.82966C71.0446 3.82966 69.9648 4.76946 69.4953 5.85022H69.378V3.99413H67.054V15.7416H69.5892Z" fill="#33CC55"/>
<path d="M82.9473 15.9765C86.0928 15.9765 88.1821 14.4258 88.1821 12.0294V11.8179H85.6703V12.0059C85.6703 13.0631 84.9191 13.721 82.9708 13.721C80.5295 13.721 79.7548 12.6402 79.6609 10.5022H88.1351C88.2055 10.1498 88.276 9.51542 88.276 8.90455C88.276 5.70925 86.0694 3.82966 82.9238 3.82966C79.4497 3.82966 77.29 6.27313 77.29 9.89134C77.29 13.533 79.0975 15.9765 82.9473 15.9765ZM82.8769 5.9677C84.8722 5.9677 85.952 6.81351 85.8581 8.81057H79.6844C79.8252 7.00147 80.6703 5.9677 82.8769 5.9677Z" fill="#33CC55"/>
<path d="M95.0288 15.7416L97.1415 9.23348L97.8927 6.29662H98.0805L98.8551 9.23348L100.944 15.7416H104.231L107.118 4.06461H104.489L103.127 10.5727L102.658 13.627H102.47L101.742 10.5727L99.6767 4.06461H96.3903L94.3481 10.5492L93.5734 13.627H93.3856L92.9161 10.5492L91.5781 4.06461H88.8316L91.719 15.7416H95.0288Z" fill="#33CC55"/>
<path d="M111.235 15.9765C113.441 15.9765 114.779 15.0132 115.46 13.909H115.577V15.7416H117.925V8.64611C117.925 5.80323 116.282 3.82966 113.019 3.82966C109.897 3.82966 107.854 5.70925 107.854 8.31718V8.55213H110.296V8.19971C110.296 6.64905 111.023 6.06167 112.878 6.06167C114.709 6.06167 115.507 6.57856 115.507 8.31718V8.95154L111.422 9.56241C108.934 9.91483 107.526 10.9251 107.526 12.8517C107.526 14.8957 109.145 15.9765 111.235 15.9765ZM109.99 12.6637C109.99 11.7944 110.46 11.489 111.798 11.301L115.507 10.7372V10.9486C115.507 13.2981 113.699 13.9559 112.056 13.9559C110.577 13.9559 109.99 13.58 109.99 12.6637Z" fill="#33CC55"/>
<path d="M122.888 15.7416V8.12922C122.888 6.57856 123.451 5.99119 124.977 5.99119C126.456 5.99119 126.902 6.55507 126.902 8.10573V8.57563H129.437V7.80029C129.437 5.61527 128.498 3.82966 126.057 3.82966C124.343 3.82966 123.263 4.76946 122.794 5.85022H122.676V3.99413H120.352V15.7416H122.888Z" fill="#33CC55"/>
<path d="M135.729 15.9765C137.725 15.9765 139.016 15.1542 139.579 13.815H139.673V15.7416H141.997V1.4004e-06H139.485V5.87372H139.415C138.898 4.81645 137.654 3.82966 135.588 3.82966C132.372 3.82966 130.588 6.20264 130.588 9.89134C130.588 13.6035 132.396 15.9765 135.729 15.9765ZM133.124 9.89134C133.124 7.02496 134.063 5.99119 136.293 5.99119C138.358 5.99119 139.485 6.90749 139.485 8.85756V10.9486C139.485 12.8987 138.358 13.815 136.293 13.815C134.039 13.815 133.124 12.7812 133.124 9.89134Z" fill="#33CC55"/>
<path d="M149.329 15.9765C152.286 15.9765 154 14.7078 154 12.5463C154 10.6197 152.826 9.6094 150.573 9.163L148.601 8.78708C146.958 8.45815 146.535 8.19971 146.535 7.3069C146.535 6.4141 146.981 5.92071 148.836 5.92071C150.925 5.92071 151.3 6.69604 151.3 7.7768V8.05874H153.718V7.84728C153.718 5.19237 151.653 3.82966 148.906 3.82966C145.854 3.82966 144.117 5.23936 144.117 7.35389C144.117 9.46843 145.432 10.4082 147.521 10.7841L149.329 11.0896C151.042 11.395 151.606 11.6769 151.606 12.6167C151.606 13.4861 151.254 13.909 149.376 13.909C147.146 13.909 146.582 13.4391 146.582 12.1703V11.7474H144.141V11.7944C144.141 14.6373 145.925 15.9765 149.329 15.9765Z" fill="#33CC55"/>
</svg>
