<svg width="16" height="17" viewBox="0 0 16 17" fill="none" xmlns="http://www.w3.org/2000/svg">
<path d="M7.25001 5.307C7.09001 5.491 7.00001 5.745 7.00001 6C7.00001 6.13261 6.94733 6.25979 6.85356 6.35356C6.75979 6.44732 6.63262 6.5 6.50001 6.5C6.3674 6.5 6.24022 6.44732 6.14645 6.35356C6.05269 6.25979 6.00001 6.13261 6.00001 6C6.00001 5.527 6.16101 5.03 6.50001 4.646C6.84701 4.252 7.36001 4 8.00001 4C8.64001 4 9.15301 4.252 9.50001 4.646C9.83901 5.031 10 5.526 10 6C10 6.49 9.88401 6.87 9.69801 7.19C9.53501 7.469 9.32201 7.69 9.15301 7.867L9.11101 7.91C8.92501 8.105 8.78201 8.264 8.67701 8.464C8.57701 8.655 8.50001 8.908 8.50001 9.293C8.50001 9.42561 8.44733 9.55279 8.35356 9.64656C8.25979 9.74032 8.13262 9.793 8.00001 9.793C7.8674 9.793 7.74022 9.74032 7.64645 9.64656C7.55269 9.55279 7.50001 9.42561 7.50001 9.293C7.50001 8.761 7.61001 8.346 7.79101 8C7.96801 7.663 8.20101 7.416 8.38901 7.219L8.41101 7.196C8.59901 6.999 8.73301 6.859 8.83401 6.686C8.92901 6.523 9.00001 6.317 9.00001 6C9.00001 5.745 8.91101 5.49 8.75001 5.307C8.59701 5.134 8.36001 5 8.00001 5C7.64001 5 7.40301 5.134 7.25001 5.307ZM8.00001 12.212C8.09409 12.2156 8.18793 12.2001 8.2759 12.1666C8.36387 12.133 8.44417 12.082 8.51199 12.0167C8.57981 11.9514 8.63377 11.8731 8.67062 11.7865C8.70747 11.6998 8.72646 11.6067 8.72646 11.5125C8.72646 11.4184 8.70747 11.3252 8.67062 11.2385C8.63377 11.1519 8.57981 11.0736 8.51199 11.0083C8.44417 10.943 8.36387 10.892 8.2759 10.8585C8.18793 10.8249 8.09409 10.8094 8.00001 10.813C7.81436 10.813 7.63631 10.8868 7.50503 11.018C7.37376 11.1493 7.30001 11.3274 7.30001 11.513C7.30001 11.6987 7.37376 11.8767 7.50503 12.008C7.63631 12.1393 7.81436 12.213 8.00001 12.213V12.212ZM8.59493e-06 8C0.000445193 6.25183 0.573501 4.55191 1.63153 3.16026C2.68956 1.7686 4.17431 0.761825 5.8587 0.293901C7.54309 -0.174022 9.33439 -0.0773281 10.9586 0.569194C12.5829 1.21572 13.9506 2.37647 14.8527 3.87393C15.7548 5.37139 16.1415 7.12312 15.9537 8.86118C15.766 10.5992 15.0141 12.228 13.813 13.4982C12.612 14.7685 11.0279 15.6104 9.30307 15.8952C7.57824 16.1799 5.80762 15.8918 4.26201 15.075L0.622009 15.985C0.538234 16.0061 0.450433 16.0051 0.367163 15.9821C0.283893 15.9591 0.207995 15.915 0.146864 15.8539C0.0857338 15.7929 0.0414572 15.7171 0.0183492 15.6338C-0.00475879 15.5506 -0.00590963 15.4628 0.0150087 15.379L0.925009 11.738C0.315703 10.5864 -0.00190487 9.30289 8.59493e-06 8ZM8.00001 1C6.77839 0.99963 5.57794 1.31896 4.51796 1.92627C3.45799 2.53358 2.57541 3.4077 1.95792 4.46178C1.34044 5.51586 1.00957 6.71318 0.998178 7.93475C0.986789 9.15632 1.29529 10.3596 1.89301 11.425C1.95578 11.5361 1.97367 11.6671 1.94301 11.791L1.18701 14.813L4.20901 14.057C4.33292 14.0263 4.46386 14.0442 4.57501 14.107C5.50827 14.6298 6.54894 14.9318 7.61709 14.9897C8.68525 15.0477 9.75247 14.86 10.7368 14.4412C11.7211 14.0224 12.5964 13.3836 13.2953 12.5737C13.9943 11.7639 14.4983 10.8047 14.7688 9.76975C15.0392 8.73478 15.0689 7.65159 14.8555 6.60337C14.642 5.55516 14.1912 4.5698 13.5376 3.72297C12.884 2.87615 12.045 2.19039 11.085 1.71836C10.1251 1.24633 9.06973 1.00059 8.00001 1Z" fill="black"/>
</svg>
