<svg width="20" height="12" viewBox="0 0 20 12" fill="none" xmlns="http://www.w3.org/2000/svg">
<path d="M11.2126 11.5C14.7458 11.5 16.8843 9.28724 16.8843 5.98936C16.8843 2.71277 14.7458 0.500002 11.2126 0.500002V2.54256C13.6301 2.54256 14.4669 3.62766 14.4669 5.98936C14.4669 8.37234 13.6301 9.45745 11.2126 9.45745V11.5Z" fill="black"/>
<path fill-rule="evenodd" clip-rule="evenodd" d="M17.2339 10.874C18.9985 9.99491 20 8.24622 20 5.98937C20 3.74707 18.9985 2.00299 17.2339 1.12533V3.95036C17.4774 4.47527 17.5826 5.15209 17.5826 5.98937C17.5826 6.83418 17.4774 7.51588 17.2339 8.04393V10.874Z" fill="black"/>
<path fill-rule="evenodd" clip-rule="evenodd" d="M5.76467 11.5C9.29785 11.5 11.4364 9.28723 11.4364 5.98936C11.4364 2.71277 9.29785 0.5 5.76467 0.5C2.20824 0.5 0 2.71277 0 5.98936C0 9.28723 2.20824 11.5 5.76467 11.5ZM2.46393 5.98936C2.46393 8.37234 3.32398 9.45744 5.76467 9.45744C8.18211 9.45744 9.01891 8.37234 9.01891 5.98936C9.01891 3.62766 8.18211 2.54255 5.76467 2.54255C3.32398 2.54255 2.46393 3.62766 2.46393 5.98936Z" fill="black"/>
</svg>
