<svg width="16" height="17" viewBox="0 0 16 17" fill="none" xmlns="http://www.w3.org/2000/svg">
<path fill-rule="evenodd" clip-rule="evenodd" d="M8.0001 0.350006C8.35908 0.350006 8.6501 0.641021 8.6501 1.00001V8.00001C8.6501 8.35899 8.35908 8.65001 8.0001 8.65001C7.64111 8.65001 7.3501 8.35899 7.3501 8.00001V1.00001C7.3501 0.641021 7.64111 0.350006 8.0001 0.350006ZM5.58722 2.39473C5.74125 2.71898 5.60326 3.10672 5.27901 3.26076C3.13215 4.28062 1.6501 6.46788 1.6501 9.00001C1.6501 12.507 4.49309 15.35 8.0001 15.35C11.5071 15.35 14.3501 12.507 14.3501 9.00001C14.3501 6.46788 12.868 4.28062 10.7212 3.26076C10.3969 3.10672 10.2589 2.71898 10.413 2.39473C10.567 2.07047 10.9548 1.93248 11.279 2.08652C13.862 3.31359 15.6501 5.94734 15.6501 9.00001C15.6501 13.225 12.2251 16.65 8.0001 16.65C3.77512 16.65 0.350098 13.225 0.350098 9.00001C0.350098 5.94734 2.13815 3.31359 4.72119 2.08652C5.04544 1.93248 5.43318 2.07047 5.58722 2.39473Z" fill="black"/>
</svg>
