<svg width="17" height="17" viewBox="0 0 17 17" fill="none" xmlns="http://www.w3.org/2000/svg">
<path fill-rule="evenodd" clip-rule="evenodd" d="M3.58579 0.585786C3.96086 0.210714 4.46957 0 5 0H12C12.5304 0 13.0391 0.210714 13.4142 0.585786C13.7893 0.960859 14 1.46957 14 2V9H17V11C17 11.7956 16.6839 12.5587 16.1213 13.1213C15.5587 13.6839 14.7956 14 14 14H9.793C9.88548 13.6731 9.94741 13.3383 9.978 13H13V2C13 1.73478 12.8946 1.48043 12.7071 1.29289C12.5196 1.10536 12.2652 1 12 1H5C4.73478 1 4.48043 1.10536 4.29289 1.29289C4.10536 1.48043 4 1.73478 4 2V7.022C3.66165 7.05254 3.32688 7.11447 3 7.207V2C3 1.46957 3.21071 0.960859 3.58579 0.585786ZM14 10V13C14.5304 13 15.0391 12.7893 15.4142 12.4142C15.7893 12.0391 16 11.5304 16 11V10H14ZM6.14645 3.14645C6.24021 3.05268 6.36739 3 6.5 3H10.5C10.6326 3 10.7598 3.05268 10.8536 3.14645C10.9473 3.24021 11 3.36739 11 3.5C11 3.63261 10.9473 3.75979 10.8536 3.85355C10.7598 3.94732 10.6326 4 10.5 4H6.5C6.36739 4 6.24021 3.94732 6.14645 3.85355C6.05268 3.75979 6 3.63261 6 3.5C6 3.36739 6.05268 3.24021 6.14645 3.14645ZM6.14645 5.14645C6.05268 5.24021 6 5.36739 6 5.5C6 5.63261 6.05268 5.75979 6.14645 5.85355C6.24021 5.94732 6.36739 6 6.5 6H10.5C10.6326 6 10.7598 5.94732 10.8536 5.85355C10.9473 5.75979 11 5.63261 11 5.5C11 5.36739 10.9473 5.24021 10.8536 5.14645C10.7598 5.05268 10.6326 5 10.5 5H6.5C6.36739 5 6.24021 5.05268 6.14645 5.14645Z" fill="black"/>
<path fill-rule="evenodd" clip-rule="evenodd" d="M7.68198 9.31802C8.52589 10.1619 9 11.3065 9 12.5C9 13.6935 8.52589 14.8381 7.68198 15.682C6.83807 16.5259 5.69347 17 4.5 17C3.30653 17 2.16193 16.5259 1.31802 15.682C0.474106 14.8381 0 13.6935 0 12.5C0 11.3065 0.474106 10.1619 1.31802 9.31802C2.16193 8.47411 3.30653 8 4.5 8C5.69347 8 6.83807 8.47411 7.68198 9.31802ZM3.08579 10.5858C3.21839 10.5858 3.34557 10.6385 3.43934 10.7322L4.5 11.7929L5.56066 10.7322C5.65443 10.6385 5.7816 10.5858 5.91421 10.5858C6.04682 10.5858 6.174 10.6385 6.26777 10.7322C6.36153 10.826 6.41421 10.9532 6.41421 11.0858C6.41421 11.2184 6.36153 11.3456 6.26777 11.4393L5.20711 12.5L6.26777 13.5607C6.36153 13.6544 6.41421 13.7816 6.41421 13.9142C6.41421 14.0468 6.36153 14.174 6.26777 14.2678C6.174 14.3615 6.04682 14.4142 5.91421 14.4142C5.78161 14.4142 5.65443 14.3615 5.56066 14.2678L4.5 13.2071L3.43934 14.2678C3.34557 14.3615 3.21839 14.4142 3.08579 14.4142C2.95318 14.4142 2.826 14.3615 2.73223 14.2678C2.63846 14.174 2.58579 14.0468 2.58579 13.9142C2.58579 13.7816 2.63846 13.6544 2.73223 13.5607L3.79289 12.5L2.73223 11.4393C2.63846 11.3456 2.58579 11.2184 2.58579 11.0858C2.58579 10.9532 2.63846 10.826 2.73223 10.7322C2.826 10.6385 2.95318 10.5858 3.08579 10.5858Z" fill="black"/>
</svg>
