<svg width="14" height="16" viewBox="0 0 14 16" fill="none" xmlns="http://www.w3.org/2000/svg">
<path d="M7 0C5.93913 0 4.92172 0.421427 4.17157 1.17157C3.42143 1.92172 3 2.93913 3 4C3 5.06087 3.42143 6.07828 4.17157 6.82843C4.92172 7.57857 5.93913 8 7 8C8.06087 8 9.07828 7.57857 9.82843 6.82843C10.5786 6.07828 11 5.06087 11 4C11 2.93913 10.5786 1.92172 9.82843 1.17157C9.07828 0.421427 8.06087 0 7 0ZM4 4C4 3.20435 4.31607 2.44129 4.87868 1.87868C5.44129 1.31607 6.20435 1 7 1C7.79565 1 8.55871 1.31607 9.12132 1.87868C9.68393 2.44129 10 3.20435 10 4C10 4.79565 9.68393 5.55871 9.12132 6.12132C8.55871 6.68393 7.79565 7 7 7C6.20435 7 5.44129 6.68393 4.87868 6.12132C4.31607 5.55871 4 4.79565 4 4ZM2.009 9C1.74564 8.99895 1.48466 9.04989 1.24102 9.14992C0.997393 9.24994 0.775904 9.39708 0.589259 9.58289C0.402614 9.7687 0.254485 9.98952 0.153366 10.2327C0.0522479 10.4759 0.000129512 10.7366 0 11C0 12.691 0.833 13.966 2.135 14.797C3.417 15.614 5.145 16 7 16C8.855 16 10.583 15.614 11.865 14.797C13.167 13.967 14 12.69 14 11C14 10.4696 13.7893 9.96086 13.4142 9.58579C13.0391 9.21071 12.5304 9 12 9H2.009ZM1 11C1 10.447 1.448 10 2.009 10H12C12.2652 10 12.5196 10.1054 12.7071 10.2929C12.8946 10.4804 13 10.7348 13 11C13 12.309 12.378 13.284 11.327 13.953C10.257 14.636 8.735 15 7 15C5.265 15 3.743 14.636 2.673 13.953C1.623 13.283 1 12.31 1 11Z" fill="black"/>
</svg>
