<svg width="16" height="16" viewBox="0 0 16 16" fill="none" xmlns="http://www.w3.org/2000/svg">
<path d="M8.0001 4.874C8.22115 4.874 8.43316 4.78618 8.58947 4.62987C8.74578 4.47356 8.8336 4.26155 8.8336 4.0405C8.8336 3.81944 8.74578 3.60743 8.58947 3.45112C8.43316 3.29481 8.22115 3.207 8.0001 3.207C7.77904 3.207 7.56703 3.29481 7.41072 3.45112C7.25441 3.60743 7.1666 3.81944 7.1666 4.0405C7.1666 4.26155 7.25441 4.47356 7.41072 4.62987C7.56703 4.78618 7.77904 4.874 8.0001 4.874ZM14.0001 12.34V7H14.0921C14.9851 7 15.3521 5.852 14.6221 5.335L8.7721 1.183C8.54656 1.02277 8.27675 0.936691 8.0001 0.936691C7.72344 0.936691 7.45363 1.02277 7.2281 1.183L1.3761 5.335C0.648095 5.852 1.0131 6.999 1.9061 6.999H2.0001V12.339C1.3991 12.725 1.0001 13.399 1.0001 14.166V15.499C1.0001 15.6316 1.05277 15.7588 1.14654 15.8526C1.24031 15.9463 1.36749 15.999 1.5001 15.999H14.5001C14.6327 15.999 14.7599 15.9463 14.8536 15.8526C14.9474 15.7588 15.0001 15.6316 15.0001 15.499V14.166C15.0001 13.399 14.6021 12.725 14.0001 12.34ZM7.8061 1.999C7.86237 1.95913 7.92963 1.93772 7.9986 1.93772C8.06756 1.93772 8.13482 1.95913 8.1911 1.999L13.8301 5.999H2.1681L7.8071 1.999H7.8061ZM12.9981 6.999V12.005C12.9429 12.0009 12.8875 11.9989 12.8321 11.999H10.9981V7H12.9981V6.999ZM3.0001 12.005V7H5.0001V12H3.1661C3.1101 12 3.0541 12.002 2.9991 12.006L3.0001 12.005ZM3.1671 12.999H12.8341C13.4781 12.999 14.0001 13.521 14.0001 14.166V14.999H2.0001V14.166C2.0001 13.521 2.5231 12.999 3.1671 12.999ZM7.5001 11.999H6.0001V7H7.5001V12V11.999ZM8.5001 11.999V7H10.0001V12H8.5001V11.999Z" fill="black"/>
</svg>
